<svg aria-hidden="true" style="position: absolute; width: 0; height: 0; overflow: hidden;" version="1.1" xmlns="http://www.w3.org/2000/svg" xmlns:xlink="http://www.w3.org/1999/xlink">
<defs>
<symbol id="wind" viewBox="0 0 24 24">
<path d="M10.299 5.295c0.195-0.196 0.449-0.294 0.706-0.295s0.512 0.096 0.708 0.291 0.294 0.449 0.295 0.706-0.096 0.512-0.291 0.708c-0.192 0.194-0.442 0.292-0.697 0.295h-9.020c-0.552 0-1 0.448-1 1s0.448 1 1 1h9.043c0.758-0.009 1.516-0.304 2.093-0.885 0.584-0.587 0.875-1.358 0.872-2.124s-0.298-1.535-0.885-2.119-1.357-0.874-2.123-0.872-1.535 0.298-2.119 0.885c-0.39 0.392-0.388 1.025 0.004 1.414s1.025 0.387 1.414-0.004zM11.881 20.115c0.584 0.587 1.352 0.883 2.119 0.885s1.537-0.289 2.124-0.872 0.883-1.352 0.885-2.119-0.289-1.537-0.872-2.124c-0.577-0.581-1.335-0.876-2.093-0.885h-12.044c-0.552 0-1 0.448-1 1s0.448 1 1 1h12.020c0.255 0.003 0.505 0.101 0.698 0.295 0.195 0.196 0.292 0.451 0.291 0.708s-0.099 0.511-0.295 0.706-0.451 0.292-0.708 0.291-0.511-0.099-0.706-0.295c-0.389-0.392-1.023-0.394-1.414-0.004s-0.394 1.023-0.004 1.414zM18.436 8.438c0.294-0.293 0.676-0.438 1.061-0.438s0.767 0.147 1.060 0.441 0.438 0.676 0.438 1.061-0.147 0.767-0.441 1.060c-0.292 0.292-0.673 0.437-1.057 0.438h-17.497c-0.552 0-1 0.448-1 1s0.448 1 1 1h17.502c0.891-0.002 1.784-0.342 2.466-1.022 0.684-0.682 1.027-1.579 1.028-2.474s-0.34-1.792-1.022-2.476-1.58-1.027-2.474-1.028-1.792 0.34-2.476 1.022c-0.391 0.39-0.392 1.023-0.002 1.414s1.023 0.392 1.414 0.002z"></path>
</symbol>
<symbol id="droplet" viewBox="0 0 32 32">
<path d="M27.020 14.786c-2.055-5.732-6.41-10.88-11.020-14.786-4.61 3.907-8.965 9.054-11.020 14.786-1.271 3.545-1.396 7.393 0.393 10.794 2.058 3.911 6.207 6.42 10.626 6.42s8.569-2.509 10.626-6.42c1.79-3.401 1.664-7.249 0.393-10.794zM23.086 23.717c-1.369 2.602-4.15 4.283-7.086 4.283-1.723 0-3.391-0.579-4.753-1.583 0.414 0.054 0.832 0.083 1.254 0.083 3.67 0 7.146-2.1 8.856-5.351 1.402-2.665 1.281-5.433 0.746-7.636 0.455 0.88 0.841 1.756 1.151 2.623 0.706 1.971 1.251 4.886-0.168 7.581z"></path>
</symbol>
<symbol id="cloud" viewBox="0 0 32 32">
<path d="M32 20.548c0-2.565-1.771-4.716-4.156-5.296-0.101-4.022-3.389-7.252-7.433-7.252-2.369 0-4.477 1.109-5.839 2.835-0.764-0.987-1.959-1.624-3.303-1.624-2.307 0-4.176 1.871-4.176 4.179 0 0.201 0.015 0.399 0.043 0.592-0.351-0.063-0.711-0.098-1.080-0.098-3.344-0-6.054 2.712-6.054 6.058s2.71 6.058 6.054 6.058l20.508-0c3.004-0.006 5.438-2.444 5.438-5.451z"></path>
</symbol>
</defs>
</svg>
